<svg width="119" height="119" viewBox="0 0 119 119" fill="none" xmlns="http://www.w3.org/2000/svg">
<g clip-path="url(#clip0_126_49)">
<path d="M57.6406 14.249L4.67819 0.12516C4.36209 0.0414883 4.04042 0.00244141 3.72061 0.00244141C2.90806 0.00244141 2.11039 0.266473 1.45217 0.770363C0.537359 1.47507 0 2.56466 0 3.71933V80.8741L57.6406 96.1321V14.249ZM45.4245 74.8851C45.1903 75.7032 44.4446 76.235 43.6377 76.235C43.4666 76.235 43.2955 76.2108 43.1263 76.1643L16.2268 68.4795C15.2394 68.1969 14.6667 67.1686 14.9475 66.1813C15.2301 65.1921 16.2658 64.6325 17.2457 64.9021L44.1453 72.5869C45.1326 72.8695 45.7053 73.8977 45.4245 74.8851ZM45.4245 61.8694C45.1903 62.6876 44.4446 63.2193 43.6377 63.2193C43.4666 63.2193 43.2955 63.1952 43.1263 63.1487L16.2268 55.462C15.2394 55.1794 14.6667 54.1493 14.9475 53.1638C15.2301 52.1746 16.2658 51.615 17.2457 51.8846L44.1453 59.5712C45.1326 59.8539 45.7053 60.884 45.4245 61.8694ZM45.4245 48.8538C45.1903 49.6719 44.4446 50.2037 43.6377 50.2037C43.4666 50.2037 43.2955 50.1795 43.1263 50.1331L16.2268 42.4464C15.2394 42.1638 14.6667 41.1337 14.9475 40.1482C15.2301 39.159 16.2658 38.5975 17.2457 38.869L44.1453 46.5556C45.1326 46.8382 45.7053 47.8683 45.4245 48.8538ZM45.4245 35.8382C45.1903 36.6563 44.4446 37.1881 43.6377 37.1881C43.4666 37.1881 43.2955 37.1639 43.1263 37.1174L16.2268 29.4308C15.2394 29.1481 14.6667 28.1181 14.9475 27.1326C15.2301 26.1434 16.2658 25.5837 17.2457 25.8533L44.1453 33.54C45.1326 33.8226 45.7053 34.8527 45.4245 35.8382Z" fill="white"/>
<path d="M117.548 0.769875C116.89 0.265984 116.09 0.00195312 115.278 0.00195312C114.958 0.00195312 114.636 0.0428594 114.322 0.124672L61.3594 14.2485V96.1316L119 80.8736V3.71884C119 2.56417 118.463 1.47458 117.548 0.769875ZM73.304 59.5001L100.204 51.8134C101.185 51.5438 102.219 52.1016 102.502 53.0927C102.783 54.0782 102.212 55.1083 101.223 55.3909L74.3229 63.0775C74.1519 63.124 73.9808 63.1482 73.8116 63.1482C73.0028 63.1482 72.259 62.6164 72.0247 61.7983C71.744 60.8128 72.3167 59.7827 73.304 59.5001ZM101.786 68.479L74.8863 76.1638C74.7171 76.2103 74.5461 76.2345 74.375 76.2345C73.5662 76.2345 72.8224 75.7027 72.5881 74.8846C72.3074 73.8972 72.8782 72.869 73.8674 72.5864L100.767 64.9016C101.749 64.632 102.783 65.1898 103.065 66.1808C103.346 67.1682 102.773 68.1964 101.786 68.479ZM101.786 42.4459L74.8863 50.1326C74.7171 50.1791 74.5461 50.2032 74.375 50.2032C73.5662 50.2032 72.8224 49.6714 72.5881 48.8533C72.3074 47.8678 72.8782 46.8378 73.8674 46.5551L100.767 38.8685C101.749 38.597 102.783 39.1567 103.065 40.1477C103.346 41.1332 102.773 42.1633 101.786 42.4459ZM101.786 29.4303L74.8863 37.1169C74.7171 37.1634 74.5461 37.1876 74.375 37.1876C73.5662 37.1876 72.8224 36.6558 72.5881 35.8377C72.3074 34.8522 72.8782 33.8221 73.8674 33.5395L100.767 25.8528C101.749 25.5832 102.783 26.141 103.065 27.1321C103.346 28.1176 102.773 29.1477 101.786 29.4303Z" fill="white"/>
<path d="M57.6406 99.9787L0 84.7207V88.3112L57.6406 103.569V99.9787Z" fill="white"/>
<path d="M61.3594 103.569L119 88.3112V84.7207L61.3594 99.9787V103.569Z" fill="white"/>
<path d="M65.0781 107.907C65.0781 110.988 62.581 113.485 59.5 113.485C56.419 113.485 53.9219 110.988 53.9219 107.907C53.9219 107.413 54.0074 106.94 54.1264 106.485L0 92.1582V96.6858C0 98.3704 1.13236 99.8449 2.75931 100.28L50.8669 113.108C52.228 116.555 55.5711 119 59.5 119C63.4289 119 66.772 116.555 68.1331 113.108L116.241 100.28C117.868 99.8449 119 98.3704 119 96.6858V92.1582L64.8736 106.487C64.9926 106.942 65.0781 107.414 65.0781 107.907Z" fill="white"/>
</g>
<defs>
<clipPath id="clip0_126_49">
<rect width="119" height="119" fill="white"/>
</clipPath>
</defs>
</svg>
