<svg width="176" height="176" viewBox="0 0 176 176" fill="none" xmlns="http://www.w3.org/2000/svg">
<path d="M62.755 108.811C63.6507 108.786 68.1293 108.48 68.7893 108.293C68.2236 107.681 58.5121 108.057 52.7607 96.6016C51.7471 94.5744 50.9929 92.453 51.2521 90.0959C51.9357 84.0851 59.0071 83.0244 63.5093 85.7351C71.995 90.8265 78.43 107.256 90.31 108.717C99.0314 109.778 110.251 104.71 115.814 98.0159C115.673 97.9907 115.626 97.9656 115.579 97.9907C115.484 98.0159 115.39 98.041 115.319 98.0662C107.47 100.918 93.0914 100.353 83.5686 94.5776C74.7057 89.2033 71.0521 80.7412 71.3586 76.9933C71.7829 71.9725 76.7564 71.5247 79.8207 72.3733C83.215 73.2923 85.5721 76.5219 88.99 78.8319C92.6671 81.2833 96.745 82.0611 101.082 81.2598C104.594 80.6237 109.191 78.3604 109.686 77.8419C109.426 77.8167 109.261 77.8167 109.096 77.7916C107.635 77.6495 106.174 77.603 104.736 77.3905C78.5243 73.5013 74.3521 38.8278 45.2179 36.5885C34.7757 35.7877 21.7879 38.4977 13.09 44.8385C12.9014 44.9805 12.7364 45.1213 12.5714 45.2621C12.5951 45.3124 12.5951 45.3376 12.6186 45.3753C12.8071 45.3753 12.9957 45.3501 13.1843 45.325C14.6693 45.0886 16.1307 45.1364 17.5921 45.4004C23.2021 46.4137 28.8357 50.8455 30.7686 63.4325C32.0179 71.5176 30.6036 75.4068 32.6543 83.7276C37.1329 101.901 54.1043 109.094 62.755 108.811ZM30.3207 42.9524C30.1086 42.7167 30.1086 42.6695 30.0143 42.481C32.8664 41.8687 35.7186 41.5142 38.6414 41.3495C38.3821 44.8145 33.4086 46.3702 30.3207 42.9524ZM76.7329 125.57C66.6443 125.853 55.0471 119.277 47.6221 111.097C46.5379 109.919 43.6621 106.336 43.2379 105.582L43.3321 105.494C44.8879 106.46 49.39 109.878 56.2493 111.858C61.9536 113.508 67.5871 113.343 73.1264 111.08C78.4771 108.888 82.7907 110.967 83.2857 111.764C78.925 112.66 78.5479 112.801 77.6286 113.626C76.4264 114.663 76.5443 116.384 79.2786 117.68C85.4543 120.603 94.1286 117.02 102.19 123.667C102.756 124.139 104.099 125.506 104.571 126.189C104.547 126.24 104.5 126.265 104.476 126.302C103.345 125.949 100.611 124.535 95.0007 124.11C89.1786 123.639 84.0872 125.358 76.7329 125.57ZM117.936 66.1703C121.801 64.9446 127.671 63.0116 133.611 65.3921C137.406 66.9242 139.786 69.8 141.177 73.5478C142.002 75.7636 142.379 78.1913 142.379 80.3129C142.332 80.3129 142.285 80.3129 142.238 80.3381C142.19 80.25 142.144 80.1256 142.12 80.0313C140.941 74.8457 135.072 69.707 126.185 72.9835C114.353 77.3678 95.4483 75.27 84.4876 61.6692C84.3226 61.4568 83.9219 61.2682 84.1812 60.9149C84.2048 60.8647 84.6762 61.057 84.8883 61.2217C89.1547 64.3801 93.9162 66.3838 99.1019 67.3973C106.291 68.8352 111.972 68.0799 117.936 66.1703ZM142.144 93.8667C134.506 93.917 134.176 105.676 117.724 109.047C113.434 109.919 108.601 110.132 107.14 110.037V109.949C107.8 109.596 110.605 109.336 114.141 106.036C116.003 104.316 117.747 102.477 119.515 100.639C124.111 95.8771 129.274 90.6915 138.82 91.4458C144.265 91.8694 145.726 93.3786 147.329 94.4393C147.4 94.4896 147.424 94.5524 147.494 94.6518C147.376 94.6518 147.329 94.6769 147.282 94.6518C145.632 94.0156 143.911 93.8667 142.144 93.8667ZM139.244 88.1859C139.22 88.2362 139.22 88.2739 139.197 88.3279C132.384 87.2908 127.882 86.4657 123.05 89.2708C119.043 91.6044 115.649 94.103 108.436 95.0222C102.048 95.8243 97.8051 95.5879 92.8551 93.1365C92.7843 93.0862 92.7137 93.0485 92.6194 92.9945C92.6194 92.9442 92.643 92.919 92.643 92.8813C98.5123 93.7764 101.223 94.0831 105.725 91.5142C110.982 88.4734 115.177 85.2442 122.532 84.207C129.509 83.2403 134.624 84.792 139.244 88.1859ZM75.8843 50.5895C75.7429 50.4487 75.625 50.3067 75.3893 50.0477C77.1807 50.0477 82.39 49.7648 87.9764 52.0278C92.62 53.9134 95.5664 56.9777 99.8093 59.7828C102.426 61.5034 105.325 61.975 108.389 61.692C109.403 61.604 110.393 61.4091 111.406 61.291C111.501 61.2658 111.619 61.291 111.76 61.3664C111.619 61.467 111.477 61.5788 111.336 61.6492C109.426 62.5921 107.399 63.1343 105.301 63.3229C99.1493 63.931 93.445 62.4459 88 59.6881C83.4507 57.3545 79.42 54.2902 75.8843 50.5895ZM163.429 106.784C162.604 107.514 158.078 109.518 153.364 108.033C150.464 107.114 148.767 104.521 145.915 102.353C143.558 100.561 140.989 100.491 139.291 100.373C139.433 100.184 139.504 100.09 139.574 100.042C143.063 97.8736 146.764 97.1664 150.724 98.5101C153.67 99.4994 155.249 101.692 157.889 104.214C160.435 106.666 162.839 106.548 163.334 106.689C163.358 106.664 163.382 106.696 163.429 106.784ZM113.339 139.077C113.858 139.36 113.716 139.43 113.693 139.548C109.332 139.217 105.702 137.757 102.661 134.315C97.5229 128.493 92.8321 127.739 91.2057 127.314C91.3236 127.264 91.3943 127.226 91.465 127.226C94.5529 127.252 97.6171 127.391 100.634 128.145C106.598 129.654 108.884 134.133 110.44 136.466C111.194 137.598 112.161 138.417 113.339 139.077Z" fill="white"/>
</svg>
