<svg width="27" height="27" viewBox="0 0 27 27" fill="none" xmlns="http://www.w3.org/2000/svg">
<path d="M13.5861 3.37305H13.7363C15.1234 3.37811 22.1518 3.42873 24.0469 3.93836C24.6198 4.09389 25.1418 4.39706 25.5608 4.81756C25.9799 5.23806 26.2812 5.76117 26.4347 6.33461C26.6051 6.97586 26.7249 7.82467 26.8059 8.70048L26.8228 8.87598L26.8599 9.31473L26.8734 9.49023C26.9831 11.0326 26.9966 12.4771 26.9983 12.7927V12.9192C26.9966 13.2466 26.9814 14.789 26.8599 16.3955L26.8464 16.5727L26.8312 16.7482C26.7469 17.7134 26.622 18.6719 26.4347 19.3773C26.2812 19.9507 25.9799 20.4738 25.5608 20.8943C25.1418 21.3148 24.6198 21.618 24.0469 21.7735C22.0894 22.3 14.6492 22.3372 13.6181 22.3389H13.3785C12.8571 22.3389 10.7004 22.3287 8.43919 22.2511L8.15231 22.241L8.0055 22.2342L7.71694 22.2224L7.42837 22.2106C5.55525 22.1279 3.77156 21.9946 2.94975 21.7719C2.37706 21.6165 1.85515 21.3136 1.43615 20.8934C1.01715 20.4732 0.715708 19.9504 0.561938 19.3773C0.374625 18.6736 0.24975 17.7134 0.165375 16.7482L0.151875 16.571L0.138375 16.3955C0.0546133 15.2521 0.00846335 14.1062 0 12.9597L0 12.7522C0.003375 12.3894 0.016875 11.1355 0.108 9.7518L0.119813 9.57798L0.124875 9.49023L0.138375 9.31473L0.1755 8.87598L0.192375 8.70048C0.273375 7.82467 0.393187 6.97417 0.563625 6.33461C0.717138 5.76117 1.01846 5.23806 1.43748 4.81756C1.8565 4.39706 2.37854 4.09389 2.95144 3.93836C3.77325 3.71898 5.55694 3.58398 7.43006 3.49961L7.71694 3.4878L8.00719 3.47767L8.15231 3.47261L8.44088 3.4608C10.0469 3.40917 11.6535 3.38047 13.2604 3.37473L13.5861 3.37305ZM10.8 8.78992V16.9203L17.8149 12.8568L10.8 8.78992Z" fill="white"/>
</svg>
